<?xml version="1.0" encoding="utf-8"?>
<!-- Generator: Adobe Illustrator 16.0.0, SVG Export Plug-In . SVG Version: 6.00 Build 0)  -->
<!DOCTYPE svg PUBLIC "-//W3C//DTD SVG 1.1//EN" "http://www.w3.org/Graphics/SVG/1.1/DTD/svg11.dtd">
<svg version="1.1" id="Layer_1" xmlns="http://www.w3.org/2000/svg" xmlns:xlink="http://www.w3.org/1999/xlink" x="0px" y="0px"
	 width="256px" height="256px" viewBox="0 0 256 256" enable-background="new 0 0 256 256" xml:space="preserve">
<g>
	<linearGradient id="SVGID_1_" gradientUnits="userSpaceOnUse" x1="113.5015" y1="194.2002" x2="195" y2="194.2002">
		<stop  offset="0" style="stop-color:#2B3990"/>
		<stop  offset="1" style="stop-color:#1C75BC"/>
	</linearGradient>
	<path fill="url(#SVGID_1_)" d="M163.867,209.639l-43.433-43.426l-6.933,35.18l47.092,47.094c2.781,2.795,6.266,4.186,10.467,4.186
		c4.188,0,7.713-1.445,10.594-4.326l6.279-6.279c2.965-2.953,5.016-12.07,6.154-27.326c0.252-16.648,0.561-33.354,0.912-50.1
		l-28.898-28.912L163.867,209.639z"/>
	<linearGradient id="SVGID_2_" gradientUnits="userSpaceOnUse" x1="135.4531" y1="101.749" x2="252.3906" y2="101.749">
		<stop  offset="0" style="stop-color:#2B3990"/>
		<stop  offset="1" style="stop-color:#1C75BC"/>
	</linearGradient>
	<path fill="url(#SVGID_2_)" d="M248.064,74.347l-6.268-6.28c-2.977-2.95-12.082-5.016-27.338-6.14
		c-16.648-0.267-33.354-0.576-50.1-0.927l-28.787,28.787l-0.119,0.127l73.891,2.233l-43.412,43.426l35.18,6.926l47.094-47.092
		c2.795-2.782,4.186-6.279,4.186-10.452C252.391,80.753,250.957,77.227,248.064,74.347z"/>
	<linearGradient id="SVGID_3_" gradientUnits="userSpaceOnUse" x1="61.0068" y1="61.8008" x2="142.5059" y2="61.8008">
		<stop  offset="0" style="stop-color:#2B3990"/>
		<stop  offset="1" style="stop-color:#1C75BC"/>
	</linearGradient>
	<path fill="url(#SVGID_3_)" d="M95.42,7.515c-2.796-2.796-6.294-4.187-10.466-4.187c-4.201,0.015-7.727,1.447-10.608,4.341
		l-6.279,6.267c-2.957,2.963-5.016,12.082-6.14,27.325c-0.267,16.662-0.576,33.353-0.92,50.099l28.906,28.914l2.233-73.913
		l43.426,43.426l6.934-35.179L95.42,7.515z"/>
	<linearGradient id="SVGID_4_" gradientUnits="userSpaceOnUse" x1="3.6089" y1="154.2373" x2="120.5537" y2="154.2373">
		<stop  offset="0" style="stop-color:#2B3990"/>
		<stop  offset="1" style="stop-color:#1C75BC"/>
	</linearGradient>
	<path fill="url(#SVGID_4_)" d="M46.648,163.854l43.426-43.426l-35.186-6.94L7.803,160.58c-2.789,2.795-4.181,6.295-4.194,10.453
		c0.021,4.215,1.461,7.74,4.341,10.621l6.287,6.266c2.951,2.965,12.062,5.029,27.312,6.152c16.662,0.268,33.367,0.563,50.092,0.914
		l28.913-28.898L46.648,163.854z"/>
</g>
</svg>
